<?xml version="1.0" encoding="UTF-8"?>
<svg id="uuid-b53ac24b-f31d-4b2f-af40-ad2f3e5eba3a" data-name="Capa 1" xmlns="http://www.w3.org/2000/svg" viewBox="0 0 686.26 206.53">
  <defs>
    <style>
      .uuid-7d93ea6d-ace3-4434-86f4-b7ab9b91f850 {
        fill: #cbcdd1;
      }

      .uuid-ff7797b6-0cc7-4cf9-b3bf-d3375c911322 {
        fill: #e9e9e9;
      }

      .uuid-b234287a-ac9f-459b-9fd9-b362205b7037 {
        fill: #a13038;
      }

      .uuid-3f642db1-adfe-4bb7-8eb7-2bd45e6a8554 {
        fill: none;
        stroke: #c1c1c1;
        stroke-miterlimit: 10;
        stroke-width: 4px;
      }

      .uuid-943d4374-8348-47e4-8ad5-5635a61cfc3a {
        fill: #80ba27;
      }

      .uuid-be777f55-73b8-4a8c-a9bd-17f65962ab77 {
        fill: #95c11f;
      }

      .uuid-85ffce81-4e08-42f1-a632-cb8b2e3fce8a {
        fill: #004379;
      }
    </style>
  </defs>
  <g id="uuid-06eb4f19-2e25-41d3-8238-fb3c72c54847" data-name="uuid-3f7028b8-b852-4c99-9cfe-a1564bebf9e0">
    <g id="uuid-52a496da-93c8-4a16-8789-1cf17d76cb47" data-name="uuid-ba3cbd49-8d5f-498f-a30f-fb16f9172dad">
      <g id="uuid-472a7829-ca46-4428-ab2e-3714b28970d9" data-name="uuid-9b059606-af85-4e42-a125-a1a4550e9150">
        <g id="uuid-91765969-fd86-47e2-99dc-90eedb19f52d" data-name="uuid-4ee4aad8-49a1-47c3-b11a-8296e398ca97">
          <g id="uuid-5b03acc6-508b-4d34-8bea-89cab90c592f" data-name="uuid-9bf0c7fd-8233-476c-8a5c-9d5f406ebd18">
            <line class="uuid-3f642db1-adfe-4bb7-8eb7-2bd45e6a8554" x1="244.01" y1=".53" x2="244.01" y2="206.53"/>
            <g>
              <g>
                <g>
                  <path class="uuid-85ffce81-4e08-42f1-a632-cb8b2e3fce8a" d="M313.06,126.24c-.93-3.62-3.27-6.25-7.84-6.25-6.74,0-9.56,5.95-9.56,11.98s2.82,11.98,9.56,11.98c4.9,0,7.57-3.65,8.02-8.24h5.38c-.44,7.53-5.77,12.73-13.4,12.73-9.44,0-15.06-7.49-15.06-16.48s5.65-16.48,15.06-16.48c7.09.04,12.69,3.96,13.36,10.76h-5.5l-.02.02v-.02h0Z"/>
                  <path class="uuid-85ffce81-4e08-42f1-a632-cb8b2e3fce8a" d="M322.29,136.29c0-6.96,4.18-11.98,11.49-11.98s11.49,5.01,11.49,11.98-4.18,12.04-11.49,12.04-11.49-5.01-11.49-12.04ZM340.29,136.29c0-3.91-1.99-8.02-6.47-8.02s-6.47,4.1-6.47,8.02,1.99,8.06,6.47,8.06,6.47-4.1,6.47-8.06Z"/>
                  <path class="uuid-85ffce81-4e08-42f1-a632-cb8b2e3fce8a" d="M349.93,124.93h4.75v3.16h.13c1.5-2.25,3.39-3.8,7-3.8,2.78,0,5.38,1.2,6.4,3.8,1.66-2.34,3.84-3.8,7.15-3.8,4.81,0,7.64,2.12,7.64,7.67v15.73h-5.01v-13.3c0-3.62-.22-6.14-4.15-6.14-3.39,0-4.86,2.25-4.86,6.09v13.36h-5.01v-14.64c0-3.13-.97-4.81-4.02-4.81-2.6,0-4.97,2.12-4.97,5.9v13.52h-5.01v-22.78h-.02v.02h0l-.02.02h0Z"/>
                  <path class="uuid-85ffce81-4e08-42f1-a632-cb8b2e3fce8a" d="M392.65,137.62c0,3.58,1.93,6.74,6.14,6.74,2.9,0,4.67-1.28,5.56-3.8h4.75c-1.1,4.97-5.34,7.75-10.31,7.75-7.15,0-11.15-4.97-11.15-11.98,0-6.47,4.22-12.04,11.02-12.04,7.18,0,11.59,6.47,10.76,13.3h-16.75l-.02.02h0ZM404.37,134.31c-.18-3.16-2.34-6.03-5.72-6.03s-5.87,2.64-5.99,6.03h11.71Z"/>
                  <path class="uuid-85ffce81-4e08-42f1-a632-cb8b2e3fce8a" d="M435.12,147.71h-4.75v-3.09h-.08c-1.32,2.6-4.18,3.69-7.05,3.69-7.18,0-10.66-5.34-10.66-12.17,0-8.24,4.9-11.86,9.87-11.86,2.87,0,6.03,1.06,7.57,3.58h.08v-11.64h5.01v31.47h0v.02h0ZM423.88,144.36c4.49,0,6.4-4.1,6.4-8.06,0-5.01-2.41-8.02-6.29-8.02-4.71,0-6.4,4.18-6.4,8.28s1.93,7.8,6.29,7.8Z"/>
                  <path class="uuid-85ffce81-4e08-42f1-a632-cb8b2e3fce8a" d="M461.03,147.71h-4.93v-3.16h-.08c-1.24,2.3-3.96,3.8-6.47,3.8-5.95,0-8.51-3-8.51-8.95v-14.45h5.01v13.96c0,4.02,1.63,5.46,4.37,5.46,4.18,0,5.61-2.68,5.61-6.21v-13.21h5.01v22.78h0v-.02h-.01Z"/>
                  <path class="uuid-85ffce81-4e08-42f1-a632-cb8b2e3fce8a" d="M482.15,132.54c-.38-2.78-2.41-4.28-5.19-4.28-2.6,0-6.25,1.36-6.25,8.28,0,3.8,1.66,7.8,6.03,7.8,2.9,0,4.93-1.93,5.42-5.19h5.01c-.93,5.9-4.59,9.16-10.43,9.16-7.15,0-11.07-5.08-11.07-11.75s3.73-12.24,11.22-12.24c5.3,0,9.79,2.64,10.27,8.24h-5.01v-.02Z"/>
                </g>
                <g>
                  <path class="uuid-85ffce81-4e08-42f1-a632-cb8b2e3fce8a" d="M291.66,32.14h21.73v4.75h-16.22v8.24h14.23v4.49h-14.23v13.96h-5.5v-31.45h-.01Z"/>
                  <path class="uuid-85ffce81-4e08-42f1-a632-cb8b2e3fce8a" d="M337.07,63.62h-4.93v-3.16h-.08c-1.24,2.3-3.96,3.8-6.47,3.8-5.95,0-8.51-3-8.51-8.95v-14.45h5.01v13.96c0,4.02,1.63,5.46,4.37,5.46,4.18,0,5.61-2.68,5.61-6.21v-13.21h5.01v22.78h0v-.02h-.01Z"/>
                  <path class="uuid-85ffce81-4e08-42f1-a632-cb8b2e3fce8a" d="M342.37,40.83h4.75v3.35l.08.08c1.5-2.52,4.1-4.06,7.09-4.06,4.93,0,8.06,2.64,8.06,7.75v15.66h-5.01v-14.31c-.08-3.58-1.5-5.12-4.44-5.12-3.35,0-5.5,2.64-5.5,5.99v13.44h-5.01v-22.78h-.02,0Z"/>
                  <path class="uuid-85ffce81-4e08-42f1-a632-cb8b2e3fce8a" d="M389.13,63.62h-4.75v-3.09h-.08c-1.32,2.6-4.18,3.69-7.05,3.69-7.18,0-10.66-5.34-10.66-12.17,0-8.24,4.9-11.86,9.87-11.86,2.87,0,6.03,1.06,7.57,3.58h.08v-11.64h5.01v31.47h0v.02h0ZM377.89,60.26c4.49,0,6.4-4.1,6.4-8.06,0-5.01-2.41-8.02-6.29-8.02-4.71,0-6.4,4.18-6.4,8.28s1.93,7.8,6.29,7.8Z"/>
                  <path class="uuid-85ffce81-4e08-42f1-a632-cb8b2e3fce8a" d="M413.69,58.54c0,1.24.26,1.72,1.2,1.72.31,0,.71,0,1.24-.08v3.47c-.75.26-2.34.57-3.16.57-2.03,0-3.47-.71-3.88-2.78-1.99,1.95-5.19,2.78-7.9,2.78-4.1,0-7.8-2.21-7.8-6.66,0-5.68,4.55-6.62,8.77-7.09,3.62-.67,6.82-.26,6.82-3.21,0-2.6-2.68-3.09-4.71-3.09-2.82,0-4.81,1.13-5.01,3.62h-5.01c.35-5.87,5.34-7.57,10.36-7.57,4.44,0,9.12,1.81,9.12,6.62v11.71l-.02-.02h-.02ZM408.65,52.2c-1.54,1.02-3.96.97-6.17,1.36-2.15.35-4.1,1.13-4.1,3.8,0,2.25,2.87,2.9,4.63,2.9,2.21,0,5.65-1.13,5.65-4.33v-3.76.02h0Z"/>
                  <path class="uuid-85ffce81-4e08-42f1-a632-cb8b2e3fce8a" d="M434.48,48.45c-.38-2.78-2.41-4.28-5.19-4.28-2.6,0-6.25,1.36-6.25,8.28,0,3.8,1.66,7.8,6.03,7.8,2.9,0,4.93-1.93,5.42-5.19h5.01c-.93,5.9-4.59,9.16-10.43,9.16-7.15,0-11.07-5.08-11.07-11.75s3.73-12.24,11.22-12.24c5.3,0,9.79,2.64,10.27,8.24h-5.01v-.02Z"/>
                  <path class="uuid-85ffce81-4e08-42f1-a632-cb8b2e3fce8a" d="M443.73,32.14h5.01v4.75h-5.01v-4.75ZM443.73,40.83h5.01v22.78h-5.01v-22.78Z"/>
                  <path class="uuid-85ffce81-4e08-42f1-a632-cb8b2e3fce8a" d="M453.17,52.2c0-6.96,4.18-11.98,11.49-11.98s11.49,5.01,11.49,11.98-4.18,12.04-11.49,12.04-11.49-5.01-11.49-12.04ZM471.14,52.2c0-3.91-1.99-8.02-6.47-8.02s-6.47,4.1-6.47,8.02,1.99,8.06,6.47,8.06,6.47-4.1,6.47-8.06ZM465.27,31.39h5.95l-6.25,6.29h-3.65l3.96-6.29h-.01Z"/>
                  <path class="uuid-85ffce81-4e08-42f1-a632-cb8b2e3fce8a" d="M480.36,40.83h4.75v3.35l.08.08c1.5-2.52,4.1-4.06,7.09-4.06,4.93,0,8.06,2.64,8.06,7.75v15.66h-5.01v-14.31c-.08-3.58-1.5-5.12-4.44-5.12-3.35,0-5.5,2.64-5.5,5.99v13.44h-5.01v-22.78h-.02,0Z"/>
                </g>
                <g>
                  <path class="uuid-85ffce81-4e08-42f1-a632-cb8b2e3fce8a" d="M291.66,74.31h22.66v4.75h-17.16v8.24h15.86v4.49h-15.86v9.21h17.46v4.75h-22.97v-31.47.02h.01Z"/>
                  <path class="uuid-85ffce81-4e08-42f1-a632-cb8b2e3fce8a" d="M340,105.76h-4.75v-3.09h-.08c-1.32,2.6-4.18,3.69-7.05,3.69-7.18,0-10.66-5.34-10.66-12.17,0-8.24,4.9-11.86,9.87-11.86,2.87,0,6.03,1.06,7.57,3.58h.08v-11.64h5.01v31.47h0v.02h0ZM328.76,102.41c4.49,0,6.4-4.1,6.4-8.06,0-5.01-2.41-8.02-6.29-8.02-4.71,0-6.4,4.18-6.4,8.28s1.93,7.8,6.29,7.8Z"/>
                  <path class="uuid-85ffce81-4e08-42f1-a632-cb8b2e3fce8a" d="M365.3,105.76h-4.93v-3.16h-.08c-1.24,2.3-3.96,3.8-6.47,3.8-5.95,0-8.51-3-8.51-8.95v-14.45h5.01v13.96c0,4.02,1.63,5.46,4.37,5.46,4.18,0,5.61-2.68,5.61-6.21v-13.21h5.01v22.78h0v-.02s-.01,0-.01,0Z"/>
                  <path class="uuid-85ffce81-4e08-42f1-a632-cb8b2e3fce8a" d="M385.79,90.61c-.4-2.78-2.41-4.28-5.19-4.28-2.6,0-6.25,1.36-6.25,8.28,0,3.8,1.66,7.8,6.03,7.8,2.9,0,4.93-1.93,5.42-5.19h5.01c-.93,5.9-4.59,9.16-10.43,9.16-7.15,0-11.07-5.08-11.07-11.75s3.73-12.24,11.22-12.24c5.3,0,9.79,2.64,10.27,8.24h-5.01v-.02Z"/>
                  <path class="uuid-85ffce81-4e08-42f1-a632-cb8b2e3fce8a" d="M413.8,100.71c0,1.24.26,1.72,1.2,1.72.31,0,.71,0,1.24-.08v3.47c-.75.26-2.34.57-3.16.57-2.03,0-3.47-.71-3.88-2.78-1.99,1.95-5.19,2.78-7.9,2.78-4.1,0-7.8-2.21-7.8-6.66,0-5.68,4.55-6.62,8.77-7.09,3.62-.67,6.82-.26,6.82-3.21,0-2.6-2.68-3.09-4.71-3.09-2.82,0-4.81,1.13-5.01,3.62h-5.01c.35-5.87,5.34-7.57,10.36-7.57,4.44,0,9.12,1.81,9.12,6.62v11.71l-.02-.02h-.02ZM408.79,94.35c-1.54,1.02-3.96.97-6.17,1.36-2.15.35-4.1,1.13-4.1,3.8,0,2.25,2.87,2.9,4.63,2.9,2.21,0,5.65-1.13,5.65-4.33v-3.76.02h0Z"/>
                  <path class="uuid-85ffce81-4e08-42f1-a632-cb8b2e3fce8a" d="M434.43,90.61c-.38-2.78-2.41-4.28-5.19-4.28-2.6,0-6.25,1.36-6.25,8.28,0,3.8,1.66,7.8,6.03,7.8,2.9,0,4.93-1.93,5.42-5.19h5.01c-.93,5.9-4.59,9.16-10.43,9.16-7.15,0-11.07-5.08-11.07-11.75s3.73-12.24,11.22-12.24c5.3,0,9.79,2.64,10.27,8.24h-5.01v-.02Z"/>
                  <path class="uuid-85ffce81-4e08-42f1-a632-cb8b2e3fce8a" d="M443.51,74.31h5.01v4.75h-5.01v-4.75ZM443.51,82.99h5.01v22.78h-5.01v-22.78Z"/>
                  <path class="uuid-85ffce81-4e08-42f1-a632-cb8b2e3fce8a" d="M452.77,94.35c0-6.96,4.18-11.98,11.49-11.98s11.49,5.01,11.49,11.98-4.18,12.04-11.49,12.04-11.49-5.01-11.49-12.04ZM470.75,94.35c0-3.91-1.99-8.02-6.47-8.02s-6.47,4.1-6.47,8.02,1.99,8.06,6.47,8.06,6.47-4.1,6.47-8.06Z"/>
                  <path class="uuid-85ffce81-4e08-42f1-a632-cb8b2e3fce8a" d="M479.77,82.99h4.75v3.35l.08.08c1.5-2.52,4.1-4.06,7.09-4.06,4.93,0,8.06,2.64,8.06,7.75v15.66h-5.01v-14.31c-.08-3.58-1.5-5.12-4.44-5.12-3.35,0-5.5,2.64-5.5,5.99v13.44h-5.01v-22.78h-.02,0Z"/>
                  <path class="uuid-85ffce81-4e08-42f1-a632-cb8b2e3fce8a" d="M523.98,100.71c0,1.24.26,1.72,1.2,1.72.31,0,.71,0,1.24-.08v3.47c-.75.26-2.34.57-3.16.57-2.03,0-3.47-.71-3.88-2.78-1.99,1.95-5.19,2.78-7.9,2.78-4.1,0-7.8-2.21-7.8-6.66,0-5.68,4.55-6.62,8.77-7.09,3.62-.67,6.82-.26,6.82-3.21,0-2.6-2.68-3.09-4.71-3.09-2.82,0-4.81,1.13-5.01,3.62h-5.01c.35-5.87,5.34-7.57,10.36-7.57,4.44,0,9.12,1.81,9.12,6.62v11.71l-.02-.02h-.02ZM518.96,94.35c-1.54,1.02-3.96.97-6.17,1.36-2.15.35-4.1,1.13-4.1,3.8,0,2.25,2.87,2.9,4.63,2.9,2.21,0,5.65-1.13,5.65-4.33v-3.76.02h-.01,0Z"/>
                  <path class="uuid-85ffce81-4e08-42f1-a632-cb8b2e3fce8a" d="M529.35,74.31h5.01v31.47h-5.01v-31.47Z"/>
                </g>
              </g>
              <rect class="uuid-be777f55-73b8-4a8c-a9bd-17f65962ab77" x="291.66" y="174.86" width="39.65" height="8.53" rx="1.59" ry="1.59"/>
              <g>
                <path class="uuid-85ffce81-4e08-42f1-a632-cb8b2e3fce8a" d="M614.67,154.6l24.1-15.66c2.8-1.81,2.8-5.9,0-7.71l-69.56-45.17c-3.69-2.39-8.57.24-8.57,4.65v30.09c0,1.75.89,3.39,2.36,4.33l45.37,29.48c1.9,1.24,4.37,1.24,6.29,0h.01Z"/>
                <path class="uuid-85ffce81-4e08-42f1-a632-cb8b2e3fce8a" d="M560.64,147.16v28.69c0,5.95,6.6,9.54,11.59,6.29l22.86-14.84c2.23-1.46,2.23-4.73,0-6.19l-27.37-17.78c-3.05-1.97-7.07.2-7.07,3.84h-.02.01Z"/>
                <path class="uuid-85ffce81-4e08-42f1-a632-cb8b2e3fce8a" d="M639.81,74.15v41.02c0,.97.49,1.88,1.3,2.41l13.72,8.92c.95.61,2.17.61,3.13,0l24.49-15.92c5.08-3.29,5.08-10.72,0-14.01l-38.21-24.81c-1.9-1.24-4.42.13-4.42,2.41v-.02h0Z"/>
                <path class="uuid-943d4374-8348-47e4-8ad5-5635a61cfc3a" d="M601.2,49.48v39.71c0,1.54.77,2.98,2.07,3.82l19.04,12.37c2.05,1.34,4.77-.14,4.77-2.6v-40.51c0-1.04-.53-2.01-1.4-2.6l-19.72-12.81c-2.05-1.34-4.77.14-4.77,2.6v.02s.01,0,.01,0Z"/>
                <path class="uuid-85ffce81-4e08-42f1-a632-cb8b2e3fce8a" d="M587.5,34.9l-15.45-10.03c-4.91-3.18-11.39.35-11.39,6.19v32.22c0,1.28.65,2.48,1.72,3.18l21.95,14.25c1.81,1.17,4.18-.13,4.18-2.27v-41.7c0-.75-.38-1.44-.99-1.85h-.02,0Z"/>
              </g>
            </g>
          </g>
        </g>
      </g>
    </g>
  </g>
  <g>
    <circle class="uuid-7d93ea6d-ace3-4434-86f4-b7ab9b91f850" cx="102.85" cy="102.85" r="102.85"/>
    <circle class="uuid-b234287a-ac9f-459b-9fd9-b362205b7037" cx="102.85" cy="102.85" r="99.39"/>
    <path class="uuid-7d93ea6d-ace3-4434-86f4-b7ab9b91f850" d="M139.71,148.61c0-3.26-.06-6.38.05-9.49.02-.57.61-1.19,1.08-1.67,7.92-8.11,12.77-17.64,14.39-28.69.13-.86.17-1.73.27-2.77H47.89c1.02,4.21,1.7,8.25,2.99,12.1,2.78,8.28,7.61,15.38,14.2,21.35.43.39.89.99.9,1.51.09,2.98.04,5.96.04,9.49-16.53-12.02-25.48-27.51-26.11-46.9-.65-19.9,7.67-36.14,24.06-49.22,0,3.81.09,7.05-.07,10.27-.03.66-.92,1.33-1.49,1.92-7.95,8.3-12.62,18.06-14,29.29-.05.41-.1.82-.12,1.22,0,.19.08.38.16.7h107.45c-.92-4.05-1.53-8.03-2.74-11.82-2.75-8.6-7.72-15.92-14.5-22.12-.67-.62-1.17-1.7-1.22-2.6-.16-2.63-.06-5.28.24-8.01,16.43,11.54,25.35,27,26.23,46.6,1,22.38-12.2,41.19-24.2,48.83Z"/>
    <g>
      <path class="uuid-7d93ea6d-ace3-4434-86f4-b7ab9b91f850" d="M87.5,171.79v9.73c0,.73.03,1.2.1,1.4.06.2.2.37.4.5s.53.19.98.19h.27v.32h-6.26v-.32h.32c.51,0,.87-.06,1.09-.18.22-.12.36-.28.44-.48s.11-.68.11-1.43v-6.17c0-.55-.03-.89-.08-1.03-.05-.14-.15-.25-.29-.35-.14-.1-.31-.14-.5-.14-.3,0-.66.09-1.09.28l-.16-.32,4.38-2h.29Z"/>
      <path class="uuid-7d93ea6d-ace3-4434-86f4-b7ab9b91f850" d="M92.98,184.18v-.25c.97-.22,1.79-.55,2.47-.98.68-.43,1.21-.97,1.61-1.61s.67-1.37.83-2.2c-.36.19-.67.32-.93.39-.25.07-.52.11-.8.11-.9,0-1.65-.32-2.25-.97-.6-.65-.9-1.54-.9-2.67,0-.78.16-1.5.49-2.15.32-.65.79-1.16,1.39-1.52.6-.36,1.23-.54,1.88-.54.7,0,1.35.2,1.97.6.62.4,1.11.97,1.48,1.73.37.75.55,1.61.55,2.58,0,1.25-.3,2.45-.9,3.6-.6,1.15-1.49,2.07-2.68,2.76s-2.59,1.07-4.21,1.13ZM98.01,178.4c.06-.65.09-1.23.09-1.73,0-1.06-.12-2.06-.37-2.97-.14-.51-.35-.88-.62-1.12-.15-.13-.34-.19-.57-.19-.29,0-.52.13-.68.38-.23.35-.34,1-.34,1.97,0,1.62.19,2.74.58,3.35.25.4.59.6,1.02.6.23,0,.53-.09.9-.28Z"/>
      <path class="uuid-7d93ea6d-ace3-4434-86f4-b7ab9b91f850" d="M111.64,171.79v.25c-1.06.27-1.91.62-2.55,1.04-.64.42-1.15.94-1.52,1.54-.37.6-.66,1.36-.86,2.25.26-.18.47-.29.64-.34.38-.12.76-.18,1.15-.18.89,0,1.63.32,2.22.97s.89,1.53.89,2.64c0,.78-.16,1.5-.48,2.16-.32.66-.78,1.16-1.37,1.52s-1.22.54-1.89.54c-.73,0-1.41-.2-2.03-.6s-1.1-.99-1.45-1.76c-.35-.77-.52-1.61-.52-2.52,0-1.33.32-2.57.96-3.72s1.55-2.06,2.73-2.75c1.18-.68,2.54-1.03,4.08-1.04ZM106.6,177.58c-.05.81-.07,1.4-.07,1.77,0,.81.08,1.59.23,2.34.15.75.37,1.28.64,1.59.19.22.42.32.68.32s.51-.16.72-.47c.21-.31.32-.95.32-1.91,0-1.61-.2-2.73-.59-3.34-.25-.4-.59-.6-1.02-.6-.23,0-.54.1-.91.29Z"/>
      <path class="uuid-7d93ea6d-ace3-4434-86f4-b7ab9b91f850" d="M122.42,171.79v.25c-1.06.27-1.91.62-2.55,1.04-.64.42-1.15.94-1.52,1.54-.37.6-.66,1.36-.86,2.25.26-.18.47-.29.64-.34.38-.12.76-.18,1.15-.18.89,0,1.63.32,2.22.97s.89,1.53.89,2.64c0,.78-.16,1.5-.48,2.16-.32.66-.78,1.16-1.37,1.52s-1.22.54-1.89.54c-.73,0-1.41-.2-2.03-.6s-1.1-.99-1.45-1.76c-.35-.77-.52-1.61-.52-2.52,0-1.33.32-2.57.96-3.72s1.55-2.06,2.73-2.75c1.18-.68,2.54-1.03,4.08-1.04ZM117.38,177.58c-.05.81-.07,1.4-.07,1.77,0,.81.08,1.59.23,2.34.15.75.37,1.28.64,1.59.19.22.42.32.68.32s.51-.16.72-.47c.21-.31.32-.95.32-1.91,0-1.61-.2-2.73-.59-3.34-.25-.4-.59-.6-1.02-.6-.23,0-.54.1-.91.29Z"/>
    </g>
    <path class="uuid-ff7797b6-0cc7-4cf9-b3bf-d3375c911322" d="M119.34,49.7v.83c-1.11.18-2.1.77-2.97,1.78-.63.75-1.57,2.51-2.81,5.29l-10.51,23.31h-.74l-10.46-24.25c-1.26-2.93-2.1-4.64-2.53-5.15-.43-.51-1.23-.83-2.42-.97v-.83h14.62v.83h-.5c-1.32,0-2.22.17-2.7.49-.35.23-.52.56-.52.99,0,.27.06.59.18.96.12.37.52,1.35,1.21,2.96l6.5,15.19,6.03-13.52c.72-1.63,1.16-2.73,1.33-3.28s.25-1.03.25-1.42c0-.45-.12-.85-.36-1.19-.24-.35-.59-.61-1.06-.79-.64-.25-1.5-.38-2.56-.38v-.83h10.01Z"/>
    <path class="uuid-ff7797b6-0cc7-4cf9-b3bf-d3375c911322" d="M119.34,119.24v.83c-1.11.18-2.1.77-2.97,1.78-.63.75-1.57,2.51-2.81,5.29l-10.51,23.31h-.74l-10.46-24.25c-1.26-2.93-2.1-4.64-2.53-5.15-.43-.51-1.23-.83-2.42-.97v-.83h14.62v.83h-.5c-1.32,0-2.22.17-2.7.49-.35.23-.52.56-.52.99,0,.27.06.59.18.96.12.37.52,1.35,1.21,2.96l6.5,15.19,6.03-13.52c.72-1.63,1.16-2.73,1.33-3.28s.25-1.03.25-1.42c0-.45-.12-.85-.36-1.19-.24-.35-.59-.61-1.06-.79-.64-.25-1.5-.38-2.56-.38v-.83h10.01Z"/>
    <g>
      <path class="uuid-ff7797b6-0cc7-4cf9-b3bf-d3375c911322" d="M16.78,133.45l.41-.19c.34.5.86.85,1.55,1.05.51.14,1.59.19,3.23.17l13.8-.19.17.36-9.47,10.66c-1.14,1.28-1.79,2.09-1.94,2.41-.15.33-.13.79.08,1.4l-.41.19-3.34-7.15.41-.19.11.24c.3.65.59,1.05.86,1.21.19.12.39.13.6.03.13-.06.27-.16.43-.31.15-.14.54-.57,1.17-1.27l5.94-6.65-7.99.14c-.96.02-1.6.06-1.91.1-.31.05-.56.11-.75.2-.22.1-.39.25-.5.45-.11.2-.16.43-.14.7.02.37.16.82.4,1.34l-.41.19-2.29-4.89Z"/>
      <path class="uuid-ff7797b6-0cc7-4cf9-b3bf-d3375c911322" d="M25.81,121.08l1.44,5.63,1.72.27c.57.09,1.03.09,1.37,0,.45-.11.73-.38.85-.79.07-.24.03-.79-.12-1.64l.44-.11,1.36,5.3-.43.11c-.23-.55-.59-.96-1.07-1.23-.48-.27-1.4-.52-2.75-.75l-14.19-2.45-.06-.22,11.61-9.1c1.1-.87,1.76-1.52,1.99-1.95.17-.33.22-.74.13-1.24l.44-.11,1.97,7.72-.44.11-.08-.32c-.16-.62-.36-1.03-.59-1.24-.17-.14-.37-.18-.61-.12-.14.04-.28.1-.42.18-.07.03-.33.23-.79.58l-1.77,1.36ZM25.04,121.71l-4.88,3.78,6.12,1.04-1.23-4.82Z"/>
      <path class="uuid-ff7797b6-0cc7-4cf9-b3bf-d3375c911322" d="M11.63,100.33l4.45-.24.02.44c-1.01.31-1.73.64-2.17.98-.43.34-.77.79-1,1.35-.13.32-.17.86-.13,1.62l.07,1.22,12.68-.68c.84-.05,1.36-.12,1.57-.22.21-.1.38-.3.52-.58.14-.28.2-.65.18-1.12l-.03-.55.45-.02.46,8.61-.45.02-.03-.55c-.03-.48-.13-.86-.32-1.14-.12-.2-.33-.36-.61-.47-.2-.08-.71-.1-1.53-.05l-12.68.68.06,1.19c.06,1.11.34,1.9.83,2.37.69.67,1.65,1.06,2.87,1.18l.02.46-4.45.24-.8-14.77Z"/>
      <path class="uuid-ff7797b6-0cc7-4cf9-b3bf-d3375c911322" d="M13.73,90.22l6.62,1.06.05-.32c.16-1.03-.04-1.83-.61-2.4-.57-.57-1.48-1.02-2.72-1.35l.07-.46,8.51,1.36-.07.46c-.94-.05-1.73.03-2.37.24-.64.21-1.1.51-1.36.88-.27.37-.47.95-.59,1.73l4.58.73c.9.14,1.45.19,1.66.15.21-.04.4-.16.56-.35.16-.19.28-.51.35-.98l.16-.97c.24-1.52.09-2.79-.47-3.82-.56-1.03-1.52-1.86-2.9-2.49l.07-.44,5.05,1.56-2.25,14.05-.44-.07.09-.54c.08-.47.05-.86-.07-1.18-.08-.23-.24-.42-.5-.57-.18-.12-.67-.24-1.49-.37l-10.69-1.71c-.74-.12-1.19-.17-1.36-.16-.29.04-.53.15-.72.34-.27.27-.45.67-.54,1.19l-.09.54-.44-.07,2.18-13.61,4.81.77-.07.46c-1.21.04-2.11.23-2.69.57-.58.34-1.05.87-1.41,1.6-.22.42-.42,1.25-.62,2.48l-.27,1.68Z"/>
      <path class="uuid-ff7797b6-0cc7-4cf9-b3bf-d3375c911322" d="M24.77,55.41l.4.2c-.17.58-.12,1.2.17,1.86.22.48.85,1.35,1.91,2.61l8.87,10.57-.17.36-14.24-.6c-1.72-.07-2.75-.07-3.1.02-.35.09-.69.4-1.04.95l-.4-.2,3.43-7.11.4.2-.12.24c-.31.64-.44,1.12-.39,1.43.03.22.15.38.36.48.13.06.3.11.51.14.21.03.78.06,1.72.1l8.91.4-5.16-6.1c-.63-.73-1.05-1.2-1.29-1.42-.23-.21-.44-.36-.63-.45-.22-.11-.44-.14-.66-.1-.22.04-.43.15-.63.33-.28.25-.54.64-.79,1.16l-.4-.2,2.35-4.87Z"/>
      <path class="uuid-ff7797b6-0cc7-4cf9-b3bf-d3375c911322" d="M44.63,55.47l.36.26-5.04,6.98-.36-.26.32-.44c.28-.39.44-.75.47-1.08.03-.24-.03-.48-.19-.73-.11-.19-.49-.52-1.16-1l-8.78-6.34c-.68-.49-1.13-.77-1.36-.82-.22-.05-.48-.01-.76.11-.29.13-.57.38-.84.75l-.32.44-.36-.26,5.04-6.98.36.26-.32.44c-.28.39-.44.75-.47,1.08-.03.24.03.49.18.74.11.19.49.52,1.16,1l8.78,6.34c.68.49,1.14.76,1.36.81.23.05.48,0,.77-.12.29-.13.57-.38.84-.75l.32-.44Z"/>
      <path class="uuid-ff7797b6-0cc7-4cf9-b3bf-d3375c911322" d="M44.84,31.92l3.96,4.1-.34.33c-1.29-.82-2.56-1.18-3.81-1.08-1.25.1-2.32.58-3.2,1.44-.74.71-1.21,1.58-1.42,2.6-.21,1.02-.12,2.01.26,2.98.48,1.23,1.24,2.39,2.28,3.47,1.02,1.06,2.09,1.9,3.2,2.51,1.11.61,2.16.86,3.16.76,1-.11,1.96-.6,2.86-1.47.75-.72,1.27-1.54,1.58-2.47.3-.92.42-2.12.33-3.58l.99,1.02c0,1.33-.2,2.5-.62,3.51-.42,1.01-1.11,1.97-2.07,2.9-1.26,1.22-2.63,2.05-4.1,2.49-1.47.44-2.93.44-4.38.01-1.45-.43-2.69-1.19-3.73-2.26-1.09-1.13-1.83-2.49-2.22-4.07-.39-1.58-.35-3.14.11-4.67.46-1.53,1.26-2.84,2.39-3.93.83-.8,1.89-1.47,3.16-2.01.74-.31,1.18-.53,1.33-.67.19-.18.28-.4.29-.67,0-.27-.12-.57-.36-.91l.34-.33Z"/>
      <path class="uuid-ff7797b6-0cc7-4cf9-b3bf-d3375c911322" d="M54.58,26.89l3.5,5.72.28-.17c.89-.54,1.37-1.22,1.42-2.02.06-.8-.19-1.79-.75-2.94l.39-.24,4.5,7.35-.39.24c-.57-.75-1.15-1.3-1.73-1.65-.58-.35-1.1-.5-1.56-.46-.46.04-1.02.26-1.69.67l2.42,3.96c.47.77.79,1.23.97,1.36.17.13.38.2.63.2.25,0,.57-.12.97-.37l.84-.51c1.31-.8,2.18-1.75,2.6-2.84.42-1.09.42-2.36,0-3.82l.38-.23,2.1,4.85-12.14,7.42-.23-.38.47-.29c.41-.25.69-.52.85-.82.12-.21.16-.46.11-.75-.03-.21-.25-.67-.68-1.37l-5.65-9.24c-.39-.64-.64-1.02-.77-1.14-.22-.2-.46-.31-.73-.33-.38-.03-.8.09-1.25.37l-.47.28-.23-.38,11.76-7.19,2.54,4.15-.39.24c-.82-.89-1.55-1.45-2.18-1.67-.63-.22-1.34-.23-2.13-.03-.46.11-1.23.49-2.29,1.14l-1.45.89Z"/>
      <path class="uuid-ff7797b6-0cc7-4cf9-b3bf-d3375c911322" d="M70.78,17.72l10.99,7.03-2.29-6.7c-.32-.93-.67-1.52-1.05-1.76-.52-.32-1.21-.32-2.07,0l-.15-.42,5.15-1.76.15.42c-.63.31-1.03.57-1.21.78-.18.21-.28.49-.3.84-.02.35.09.89.34,1.62l4.44,12.97-.39.13-14.98-9.36,3.39,9.9c.31.9.72,1.43,1.24,1.6.52.17,1.04.17,1.57-.01l.37-.13.15.42-5.52,1.89-.15-.43c.85-.3,1.39-.68,1.61-1.14.22-.46.19-1.1-.1-1.93l-3.77-10.99-.47-.3c-.47-.3-.85-.47-1.15-.52-.3-.04-.69,0-1.17.16l-.15-.42,5.52-1.89Z"/>
      <path class="uuid-ff7797b6-0cc7-4cf9-b3bf-d3375c911322" d="M100.22,11.64l.49,4.43-.43.05c-.37-.99-.74-1.7-1.1-2.11-.36-.41-.83-.72-1.41-.92-.32-.11-.86-.12-1.63-.04l-1.22.14,1.4,12.62c.09.84.2,1.35.31,1.55.12.2.32.36.6.49.29.13.66.16,1.13.11l.54-.06.05.45-8.57.95-.05-.45.54-.06c.47-.05.85-.18,1.12-.38.2-.14.34-.35.43-.63.07-.2.06-.71-.04-1.54l-1.4-12.62-1.18.13c-1.1.12-1.88.44-2.32.97-.63.73-.97,1.71-1.02,2.93l-.46.05-.49-4.43,14.7-1.63Z"/>
      <path class="uuid-ff7797b6-0cc7-4cf9-b3bf-d3375c911322" d="M110.42,13.16l-.68,6.67.33.03c1.04.11,1.82-.14,2.36-.75.53-.6.93-1.54,1.19-2.8l.46.05-.88,8.58-.46-.05c0-.94-.13-1.73-.38-2.36-.25-.63-.57-1.06-.96-1.31-.39-.25-.98-.41-1.76-.49l-.47,4.61c-.09.9-.11,1.46-.05,1.67.06.21.18.39.38.54.2.15.53.25,1,.3l.98.1c1.53.16,2.79-.07,3.79-.69.99-.61,1.77-1.63,2.32-3.03l.45.05-1.27,5.13-14.16-1.45.05-.45.54.06c.47.05.87,0,1.17-.14.22-.09.4-.27.54-.53.11-.18.2-.69.29-1.51l1.1-10.77c.08-.74.1-1.2.08-1.37-.05-.29-.18-.52-.38-.7-.28-.26-.69-.41-1.22-.47l-.54-.06.05-.45,13.71,1.4-.49,4.84-.46-.05c-.11-1.21-.35-2.09-.72-2.65-.37-.56-.93-1-1.68-1.32-.44-.19-1.27-.35-2.51-.48l-1.69-.17Z"/>
      <path class="uuid-ff7797b6-0cc7-4cf9-b3bf-d3375c911322" d="M132.94,26.11l-2.02,4.68c-.33.77-.5,1.27-.5,1.5,0,.23.1.47.28.72.19.25.49.47.92.65l.5.22-.18.41-7.9-3.41.18-.41.5.22c.44.19.83.26,1.16.22.24-.02.46-.13.68-.34.16-.14.4-.59.73-1.35l4.29-9.94c.33-.77.5-1.27.5-1.5,0-.23-.09-.47-.28-.72s-.49-.47-.91-.65l-.5-.22.18-.41,7.9,3.41-.18.41-.5-.22c-.44-.19-.83-.26-1.16-.22-.24.02-.47.13-.69.34-.16.14-.4.59-.73,1.35l-1.85,4.28,5.34,2.31,1.85-4.28c.33-.77.5-1.27.5-1.5,0-.23-.09-.47-.28-.72-.19-.25-.5-.47-.92-.66l-.49-.21.18-.41,7.89,3.41-.18.41-.49-.21c-.45-.19-.83-.27-1.16-.22-.24.02-.47.13-.69.34-.16.14-.4.59-.73,1.35l-4.29,9.94c-.33.77-.5,1.27-.5,1.5,0,.23.09.47.28.72.19.25.5.47.92.66l.49.21-.18.41-7.89-3.41.18-.41.49.21c.45.19.83.27,1.16.22.24-.02.47-.13.69-.34.16-.14.4-.59.73-1.35l2.02-4.68-5.34-2.31Z"/>
      <path class="uuid-ff7797b6-0cc7-4cf9-b3bf-d3375c911322" d="M150.87,25.16l6.79,5.11-.27.36-.34-.26c-.51-.38-.9-.6-1.17-.63-.27-.04-.52,0-.74.13-.22.13-.62.57-1.18,1.31l-4.85,6.44c-.89,1.18-1.38,2.02-1.49,2.54-.11.52-.06,1.05.16,1.61.22.56.64,1.07,1.26,1.54.71.54,1.44.83,2.18.89.74.06,1.45-.1,2.12-.48.67-.38,1.53-1.26,2.59-2.66l4.04-5.36c.44-.59.7-1.05.77-1.4.07-.34.04-.64-.07-.87-.18-.37-.53-.75-1.06-1.15l.27-.36,4.55,3.43-.27.36-.27-.2c-.37-.28-.73-.43-1.09-.47-.36-.04-.7.05-1.04.27-.24.14-.56.48-.97,1.02l-3.76,4.99c-1.16,1.55-2.11,2.58-2.83,3.12-.72.53-1.69.79-2.91.77-1.22-.02-2.52-.54-3.88-1.57-1.14-.86-1.9-1.67-2.29-2.44-.54-1.05-.73-2.03-.6-2.94.14-.91.62-1.91,1.44-3l4.85-6.44c.57-.76.88-1.26.94-1.51.05-.25.02-.5-.1-.77-.12-.27-.47-.6-1.03-1.02l.27-.36Z"/>
      <path class="uuid-ff7797b6-0cc7-4cf9-b3bf-d3375c911322" d="M160.61,54.94l-.33.31-5.86-6.31.33-.31.37.4c.32.35.65.57.97.67.23.08.48.06.76-.04.2-.07.61-.38,1.21-.94l7.94-7.37c.62-.57.97-.96,1.07-1.17.09-.21.11-.47.04-.77-.07-.31-.26-.63-.57-.97l-.37-.4.33-.31,5.86,6.31-.33.31-.37-.4c-.33-.35-.65-.57-.97-.67-.23-.08-.48-.07-.77.03-.2.07-.61.38-1.21.94l-7.94,7.37c-.62.57-.97.97-1.06,1.18-.09.21-.1.47-.03.78.07.31.26.63.57.97l.37.4Z"/>
      <path class="uuid-ff7797b6-0cc7-4cf9-b3bf-d3375c911322" d="M160.71,55.16l.38-.24.3.46c.26.4.52.67.78.8.26.13.54.18.82.14.18-.03.63-.28,1.34-.74l9.1-5.87c.71-.46,1.13-.78,1.25-.97.13-.19.19-.44.17-.75-.01-.31-.15-.66-.4-1.05l-.3-.46.38-.24,4,6.19c1.07,1.65,1.7,3.13,1.9,4.42.24,1.59.01,3.06-.69,4.41-.71,1.36-1.76,2.49-3.17,3.4-.97.63-1.97,1.05-2.99,1.27-1.02.22-1.96.25-2.81.1-.85-.15-1.65-.45-2.39-.89-.74-.44-1.5-1.07-2.29-1.9-.35-.36-.81-.99-1.39-1.88l-4-6.19ZM177.16,52.02l-10.79,6.96c-.57.37-.9.62-1,.76-.09.14-.13.29-.12.47.02.25.14.55.36.89.73,1.14,1.68,1.75,2.84,1.85,1.57.14,3.46-.5,5.67-1.92,1.78-1.15,3.01-2.34,3.71-3.58.54-.98.74-1.91.59-2.8-.11-.63-.53-1.5-1.27-2.64Z"/>
      <path class="uuid-ff7797b6-0cc7-4cf9-b3bf-d3375c911322" d="M188.88,72.69c.96,2.44.94,4.71-.05,6.79-.99,2.08-2.64,3.53-4.95,4.34-1.97.69-3.91.72-5.81.09-2.52-.83-4.27-2.64-5.25-5.43-.98-2.8-.79-5.29.57-7.48,1.07-1.73,2.64-2.96,4.69-3.68,2.31-.81,4.51-.7,6.59.33,2.09,1.03,3.49,2.71,4.2,5.03ZM188.19,73.08c-.5-1.42-1.6-2.25-3.31-2.48-1.4-.19-3.22.11-5.45.89-2.65.93-4.45,2.08-5.39,3.46-.66.96-.78,2.02-.37,3.19.28.79.7,1.38,1.26,1.77.72.5,1.69.75,2.89.75s2.67-.3,4.4-.91c2.05-.72,3.53-1.45,4.41-2.19.89-.74,1.44-1.48,1.65-2.22.21-.74.18-1.49-.09-2.27Z"/>
      <path class="uuid-ff7797b6-0cc7-4cf9-b3bf-d3375c911322" d="M185.88,96.63c-.19,1.59-.51,2.73-.96,3.41-.63.98-1.53,1.54-2.7,1.66-1.23.13-2.3-.25-3.22-1.15-1.11-1.11-1.79-2.82-2.04-5.14l-.91-8.32.45-.05c.08.76.21,1.26.38,1.52.17.25.37.42.61.51.24.08.8.08,1.68-.02l10.62-1.16c.89-.1,1.44-.21,1.65-.35.22-.13.38-.34.49-.63.11-.29.12-.81.04-1.56l.45-.05.86,7.85c.2,1.87.18,3.22-.07,4.04-.25.82-.68,1.49-1.3,2.01-.61.52-1.3.83-2.04.91-.79.09-1.52-.12-2.2-.63-.68-.5-1.28-1.46-1.8-2.86ZM184.78,92.31l-5.25.57-.6.05c-.43.05-.75.19-.95.44-.2.25-.27.59-.22,1.02.07.64.28,1.22.62,1.73.34.51.8.88,1.38,1.11s1.2.31,1.86.24c.76-.08,1.43-.34,2-.76.57-.42.94-.95,1.11-1.6.17-.65.19-1.58.05-2.81ZM185.73,92.2c.12,1.14.35,1.97.66,2.49.32.52.72.89,1.22,1.13.5.24,1.11.32,1.83.24.72-.08,1.3-.29,1.73-.62.43-.34.74-.78.92-1.34.18-.56.21-1.42.07-2.6l-6.45.7Z"/>
      <path class="uuid-ff7797b6-0cc7-4cf9-b3bf-d3375c911322" d="M184.59,109.63l-4.58-.52c-.88-.1-1.45-.11-1.69-.03-.24.08-.45.25-.61.51-.17.26-.29.76-.38,1.51l-.45-.05.95-8.37.45.05c-.09.76-.07,1.28.04,1.56.11.29.27.5.48.63s.76.25,1.65.35l10.62,1.2c.88.1,1.45.11,1.69.03.24-.08.45-.25.61-.51.17-.26.29-.76.38-1.51l.45.05-.86,7.6c-.22,1.98-.52,3.41-.9,4.3-.38.89-.97,1.58-1.77,2.07-.8.5-1.7.69-2.69.58-1.21-.14-2.15-.68-2.84-1.64-.44-.61-.72-1.43-.86-2.46l-5.98,3.31c-.77.43-1.26.75-1.46.95-.29.3-.47.67-.54,1.1l-.45-.05.58-5.15,8.05-4.43.12-1.07ZM192.62,110.54l-7.17-.81-.08.69c-.13,1.12-.12,1.97.02,2.54.14.58.46,1.06.96,1.43.5.38,1.18.62,2.04.71,1.25.14,2.2-.05,2.86-.56.66-.52,1.06-1.42,1.21-2.72l.15-1.29Z"/>
      <path class="uuid-ff7797b6-0cc7-4cf9-b3bf-d3375c911322" d="M188.53,134c-.82,2.49-2.28,4.23-4.37,5.2-2.09.97-4.29,1.04-6.58.19-1.96-.72-3.47-1.94-4.53-3.63-1.41-2.25-1.61-4.76-.58-7.53,1.03-2.78,2.76-4.58,5.21-5.4,1.93-.65,3.92-.6,5.96.16,2.29.85,3.92,2.33,4.87,4.46.95,2.13.96,4.31.03,6.55ZM187.75,133.86c.52-1.41.2-2.75-.97-4.02-.96-1.04-2.55-1.97-4.77-2.79-2.63-.97-4.75-1.23-6.36-.77-1.12.32-1.89,1.06-2.32,2.22-.29.78-.34,1.5-.16,2.17.24.85.82,1.65,1.75,2.42.93.77,2.25,1.47,3.97,2.1,2.04.76,3.64,1.13,4.79,1.13,1.15,0,2.05-.22,2.68-.66.64-.43,1.09-1.03,1.38-1.8Z"/>
    </g>
  </g>
</svg>